 
http://img153.imageshack.us/img153/9427/supermanbatmanapocalypsbf.jpg


Superman/Batman: Apocalypse is a 2010 direct-to-video animated film based on the Superman/Batman comic storyline "The Supergirl from Krypton" and is a sequel to Superman/Batman: Public Enemies. The art style is partly based on that of Michael Turner, who penciled the Superman/Batman  comic book arc. The film is the ninth in the DC Universe Animated Original Movies line released by Warner Premiere and Warner Bros. Animation and the first sequel in the line. It was released on September 28, 2010. The film stars Tim Daly  as Clark Kent/Superman, Kevin Conroy as Bruce Wayne/Batman, Andre Braugher as Darkseid, Summer Glau as Kara Zor-El/Supergirl, Susan Eisenberg as Princess Diana/Wonder Woman, and Edward Asner as Granny Goodness. Despite the title, the film focuses primarily on the introduction of Supergirl and her relationship with Superman; Batman plays only a supporting role.




 
http://img155.imageshack.us/i/supermanbatmanapocalyps.png/ 
http://img825.imageshack.us/i/supermanbatmanapocalyps.png/ 
http://img34.imageshack.us/i/supermanbatmanapocalyps.png/ 
http://img840.imageshack.us/i/supermanbatmanapocalyps.png/


General
Complete name                    : Superman Batman Apocalypse 720p.mkv
Format                           : Matroska
File size                        : 2.19 GiB
Duration                         : 1h 18mn
Overall bit rate                 : 4 006 Kbps
Encoded date                     : UTC 2011-02-04 08:16:40
Writing application              : mkvmerge v4.3.0 ('Escape from the Island') built on Sep  5 2010 10:30:51
Writing library                  : libebml v1.0.0 + libmatroska v1.0.0

Video
ID                               : 1
Format                           : AVC
Format/Info                      : Advanced Video Codec
Format profile                   : High@L4.1
Format settings, CABAC           : Yes
Format settings, ReFrames        : 5 frames
Muxing mode                      : Header stripping
Codec ID                         : V_MPEG4/ISO/AVC
Duration                         : 1h 18mn
Bit rate                         : 3 365 Kbps
Width                            : 1 280 pixels
Height                           : 720 pixels
Display aspect ratio             : 16:9
Frame rate                       : 23.976 fps
Color space                      : YUV
Chroma subsampling               : 4:2:0
Bit depth                        : 8 bits
Scan type                        : Progressive
Bits/(Pixel*Frame)               : 0.152
Stream size                      : 1.79 GiB (82%)
Writing library                  : x264 core 104 r1713 c276662


Audio
ID                               : 2
Format                           : AC-3
Format/Info                      : Audio Coding 3
Mode extension                   : CM (complete main)
Muxing mode                      : Header stripping
Codec ID                         : A_AC3
Duration                         : 1h 18mn
Bit rate mode                    : Constant
Bit rate                         : 640 Kbps
Channel(s)                       : 6 channels
Channel positions                : Front: L C R, Side: L R, LFE
Sampling rate                    : 48.0 KHz
Bit depth                        : 16 bits
Stream size                      : 358 MiB (16%)

Text
ID                               : 3
Format                           : UTF-8
Codec ID                         : S_TEXT/UTF8
Codec ID/Info                    : UTF-8 Plain Text
Language                         : Italian





